<?xml version="1.0" encoding="UTF-8"?>
<svg xmlns="http://www.w3.org/2000/svg" xmlns:xlink="http://www.w3.org/1999/xlink" width="14px" height="30px" viewBox="0 0 14 30" version="1.1">
<g id="surface1">
<path style=" stroke:none;fill-rule:nonzero;fill:rgb(11.372549%,11.372549%,12.156863%);fill-opacity:1;" d="M 14 11.167969 L 13.4375 11.167969 C 13.425781 9.835938 12.644531 8.6875 11.511719 8.136719 C 10.953125 7.761719 10.625 7.234375 10.570312 6.667969 L 10.324219 4.566406 C 10.25 3.988281 10.15625 3.902344 9.257812 3.714844 C 9.257812 3.714844 7.914062 3.539062 6.710938 3.539062 C 5.507812 3.539062 4.164062 3.714844 4.164062 3.714844 C 3.265625 3.902344 3.171875 3.988281 3.09375 4.566406 L 2.851562 6.667969 C 2.796875 7.238281 2.480469 7.761719 1.925781 8.136719 C 0.785156 8.695312 0 9.855469 0 11.203125 L 0 20.046875 C 0 21.371094 0.761719 22.519531 1.875 23.085938 C 2.464844 23.476562 2.78125 24.058594 2.835938 24.648438 L 3.078125 26.753906 C 3.15625 27.328125 3.25 27.414062 4.148438 27.605469 C 4.148438 27.605469 5.492188 27.777344 6.695312 27.777344 C 7.898438 27.777344 9.242188 27.605469 9.242188 27.605469 C 10.140625 27.414062 10.234375 27.332031 10.3125 26.753906 L 10.554688 24.648438 C 10.609375 24.070312 10.949219 23.496094 11.527344 23.105469 C 12.660156 22.546875 13.441406 21.386719 13.441406 20.046875 L 13.441406 14.070312 L 14 14.070312 Z M 12.878906 20.046875 C 12.878906 21.625 11.585938 22.910156 9.992188 22.910156 L 3.445312 22.910156 C 1.855469 22.910156 0.558594 21.625 0.558594 20.046875 L 0.558594 11.203125 C 0.558594 9.621094 1.855469 8.335938 3.445312 8.335938 L 9.992188 8.335938 C 11.585938 8.335938 12.878906 9.621094 12.878906 11.203125 Z M 12.878906 20.046875 "/>
</g>
</svg>
