<?xml version="1.0" encoding="UTF-8"?>
<svg xmlns="http://www.w3.org/2000/svg" xmlns:xlink="http://www.w3.org/1999/xlink" width="35px" height="54px" viewBox="0 0 35 54" version="1.1">
<g id="surface1">
<path style=" stroke:none;fill-rule:nonzero;fill:rgb(11.372549%,11.372549%,12.156863%);fill-opacity:1;" d="M 17.5 16 C 8.109375 16 0.5 23.609375 0.5 33 C 0.5 42.390625 8.109375 50 17.5 50 C 26.890625 50 34.5 42.390625 34.5 33 C 34.5 23.609375 26.890625 16 17.5 16 Z M 22 24.148438 C 22.894531 24.070312 23.695312 24.710938 23.820312 25.601562 L 23 25.601562 C 22.875 25.15625 22.460938 24.851562 22 24.871094 C 21.300781 24.871094 20.871094 25.421875 20.871094 26.339844 C 20.871094 27.261719 21.300781 27.851562 22 27.851562 C 22.464844 27.898438 22.890625 27.59375 23 27.140625 L 23.820312 27.140625 C 23.691406 28.023438 22.890625 28.648438 22 28.558594 C 21.429688 28.5625 20.882812 28.324219 20.5 27.898438 C 20.121094 27.472656 19.9375 26.90625 20 26.339844 C 19.925781 25.773438 20.105469 25.203125 20.492188 24.78125 C 20.875 24.359375 21.429688 24.128906 22 24.148438 Z M 14.46875 24.851562 C 14 24.851562 13.679688 25.03125 13.578125 25.328125 L 12.769531 25.328125 C 12.859375 24.621094 13.539062 24.148438 14.511719 24.148438 C 15.480469 24.148438 16.179688 24.679688 16.179688 25.578125 L 16.179688 28.480469 L 15.371094 28.480469 L 15.371094 27.878906 L 15.300781 27.878906 C 15.023438 28.316406 14.535156 28.574219 14.019531 28.550781 C 13.660156 28.585938 13.300781 28.46875 13.035156 28.226562 C 12.765625 27.984375 12.609375 27.640625 12.609375 27.28125 C 12.609375 26.519531 13.179688 26.078125 14.191406 26.019531 L 15.308594 26 L 15.308594 25.621094 C 15.308594 25.109375 15 24.851562 14.441406 24.851562 Z M 7.121094 24.238281 L 7.878906 27.511719 L 7.941406 27.511719 L 8.820312 24.238281 L 9.621094 24.238281 L 10.5 27.511719 L 10.558594 27.511719 L 11.320312 24.238281 L 12.160156 24.238281 L 11 28.480469 L 10.121094 28.480469 L 9.25 25.308594 L 9.148438 25.308594 L 8.269531 28.480469 L 7.410156 28.480469 L 6.238281 24.238281 Z M 12.46875 42.640625 C 9.171875 42.640625 7.109375 40.328125 7.109375 36.640625 C 7.109375 32.949219 9.171875 30.640625 12.46875 30.640625 C 15.769531 30.640625 17.820312 32.960938 17.820312 36.640625 C 17.820312 40.320312 15.730469 42.640625 12.441406 42.640625 Z M 17.550781 27.359375 L 17.550781 24.921875 L 16.871094 24.921875 L 16.871094 24.25 L 17.550781 24.25 L 17.550781 23.171875 L 18.390625 23.171875 L 18.390625 24.25 L 19.308594 24.25 L 19.308594 24.921875 L 18.390625 24.921875 L 18.390625 27.160156 C 18.390625 27.609375 18.570312 27.808594 18.988281 27.808594 C 19.097656 27.820312 19.203125 27.820312 19.308594 27.808594 L 19.308594 28.480469 C 19.15625 28.507812 19.003906 28.523438 18.851562 28.53125 C 17.890625 28.511719 17.519531 28.179688 17.519531 27.359375 Z M 23.21875 42.640625 C 20.679688 42.640625 18.988281 41.328125 18.851562 39.328125 L 20.300781 39.328125 C 20.46875 40.570312 21.628906 41.328125 23.300781 41.328125 C 24.96875 41.328125 26.019531 40.5 26.019531 39.328125 C 26.019531 38.328125 25.378906 37.710938 23.761719 37.328125 L 22.480469 37.050781 C 20.148438 36.539062 19.140625 35.488281 19.140625 33.839844 C 19.140625 31.921875 20.828125 30.570312 23.238281 30.570312 C 25.648438 30.570312 27.238281 31.960938 27.300781 33.929688 L 25.820312 33.929688 C 25.632812 32.648438 24.453125 31.757812 23.171875 31.929688 C 21.71875 31.929688 20.601562 32.640625 20.601562 33.820312 C 20.601562 34.738281 21.21875 35.371094 22.808594 35.71875 L 24.101562 36 C 26.519531 36.53125 27.480469 37.488281 27.480469 39.140625 C 27.480469 41.289062 25.789062 42.640625 23.191406 42.640625 Z M 28.480469 28.480469 L 27.601562 28.480469 L 27.601562 25.929688 C 27.601562 25.238281 27.289062 24.929688 26.699219 24.929688 C 26.410156 24.90625 26.121094 25.011719 25.914062 25.214844 C 25.707031 25.421875 25.597656 25.707031 25.621094 26 L 25.621094 28.488281 L 24.78125 28.488281 L 24.78125 22.570312 L 25.621094 22.570312 L 25.621094 24.910156 L 25.679688 24.910156 C 25.914062 24.414062 26.433594 24.117188 26.980469 24.160156 C 27.394531 24.136719 27.796875 24.296875 28.082031 24.601562 C 28.367188 24.902344 28.5 25.316406 28.449219 25.730469 Z M 28.480469 28.480469 "/>
<path style=" stroke:none;fill-rule:nonzero;fill:rgb(11.372549%,11.372549%,12.156863%);fill-opacity:1;" d="M 12.441406 32 C 10.058594 32 8.570312 33.808594 8.570312 36.679688 C 8.570312 39.550781 10.058594 41.339844 12.441406 41.339844 C 14.820312 41.339844 16.300781 39.53125 16.300781 36.679688 C 16.300781 33.828125 14.808594 32 12.441406 32 Z M 12.441406 32 "/>
<path style=" stroke:none;fill-rule:nonzero;fill:rgb(11.372549%,11.372549%,12.156863%);fill-opacity:1;" d="M 13.421875 27.25 C 13.421875 27.640625 13.75 27.871094 14.210938 27.871094 C 14.492188 27.898438 14.773438 27.804688 14.984375 27.613281 C 15.191406 27.425781 15.3125 27.152344 15.308594 26.871094 L 15.308594 26.5 L 14.308594 26.570312 C 13.679688 26.648438 13.421875 26.859375 13.421875 27.25 Z M 13.421875 27.25 "/>
</g>
</svg>
