<?xml version="1.0" encoding="UTF-8"?>
<svg xmlns="http://www.w3.org/2000/svg" xmlns:xlink="http://www.w3.org/1999/xlink" width="16px" height="54px" viewBox="0 0 16 55" version="1.1">
<g id="surface1">
<path style=" stroke:none;fill-rule:nonzero;fill:rgb(11.372549%,11.372549%,12.156863%);fill-opacity:1;" d="M 0.824219 9.410156 L 1.476562 9.410156 C 2.191406 9.40625 2.773438 9.96875 2.785156 10.664062 L 2.785156 30.800781 C 2.785156 33.613281 5.117188 35.894531 8 35.894531 C 10.882812 35.894531 13.214844 33.613281 13.214844 30.800781 L 13.214844 10.664062 C 13.214844 9.972656 13.214844 9.410156 14.523438 9.410156 L 15.175781 9.410156 C 15.535156 9.410156 15.824219 9.125 15.824219 8.78125 C 15.824219 8.429688 15.535156 8.148438 15.175781 8.148438 L 0.824219 8.148438 C 0.464844 8.148438 0.175781 8.429688 0.175781 8.78125 C 0.175781 9.125 0.464844 9.410156 0.824219 9.410156 Z M 8 15.519531 C 8.714844 15.53125 9.289062 16.09375 9.285156 16.789062 C 9.277344 17.488281 8.699219 18.050781 7.984375 18.046875 C 7.269531 18.046875 6.695312 17.480469 6.695312 16.785156 C 6.703125 16.089844 7.285156 15.523438 8 15.535156 Z M 8 20.71875 C 8.714844 20.722656 9.289062 21.289062 9.285156 21.984375 C 9.277344 22.683594 8.699219 23.246094 7.984375 23.242188 C 7.269531 23.242188 6.695312 22.675781 6.695312 21.980469 C 6.707031 21.285156 7.289062 20.726562 8 20.726562 Z M 8 25.75 C 8.714844 25.753906 9.289062 26.324219 9.285156 27.019531 C 9.277344 27.714844 8.699219 28.273438 7.984375 28.273438 C 7.269531 28.269531 6.695312 27.707031 6.695312 27.007812 C 6.707031 26.3125 7.289062 25.757812 8 25.757812 Z M 15.175781 49.652344 L 14.523438 49.652344 C 13.214844 49.652344 13.214844 49.09375 13.214844 48.402344 L 13.214844 34.527344 C 11.988281 36.136719 10.054688 37.078125 8 37.078125 C 5.945312 37.078125 4.011719 36.136719 2.785156 34.527344 L 2.785156 48.410156 C 2.773438 49.105469 2.191406 49.671875 1.476562 49.660156 L 0.824219 49.660156 C 0.464844 49.660156 0.175781 49.945312 0.175781 50.292969 C 0.175781 50.640625 0.464844 50.925781 0.824219 50.925781 L 15.175781 50.925781 C 15.535156 50.925781 15.824219 50.640625 15.824219 50.292969 C 15.824219 49.945312 15.535156 49.660156 15.175781 49.660156 Z M 15.175781 49.652344 "/>
</g>
</svg>
